HIERARCHY
ROOT Hips
{
	OFFSET 0.000000 0.000000 0.000000
	CHANNELS 6 Xposition Yposition Zposition Xrotation Yrotation Zrotation
	JOINT LeftUpLeg_virtual
	{
		OFFSET 0.000000 0.000000 0.000000
		CHANNELS 3 Xrotation Yrotation Zrotation
		JOINT LeftUpLeg
		{
			OFFSET 10.205400 -3.823500 0.155100
			CHANNELS 3 Xrotation Yrotation Zrotation
			JOINT LeftLeg
			{
				OFFSET 0.708757 -12.982077 0.567790
				CHANNELS 3 Xrotation Yrotation Zrotation
				JOINT LeftFoot
				{
					OFFSET -0.708756 -10.717838 -2.184338
					CHANNELS 3 Xrotation Yrotation Zrotation
					JOINT LeftToeBase
					{
						OFFSET 0.108149 -7.191104 7.560241
						CHANNELS 3 Xrotation Yrotation Zrotation
						JOINT LeftToe_End
						{
							OFFSET 0.070230 0.081724 4.490308
							CHANNELS 3 Xrotation Yrotation Zrotation
							End Site
							{
								OFFSET 0 0 0
							}
						}
					}
				}
			}
		}
	}
	JOINT RightUpLeg_virtual
	{
		OFFSET 0.000000 0.000000 0.000000
		CHANNELS 3 Xrotation Yrotation Zrotation
		JOINT RightUpLeg
		{
			OFFSET -10.205400 -3.823500 0.005500
			CHANNELS 3 Xrotation Yrotation Zrotation
			JOINT RightLeg
			{
				OFFSET -0.708756 -12.982134 0.610632
				CHANNELS 3 Xrotation Yrotation Zrotation
				JOINT RightFoot
				{
					OFFSET 0.708754 -10.717769 -1.945823
					CHANNELS 3 Xrotation Yrotation Zrotation
					JOINT RightToeBase
					{
						OFFSET -0.108140 -7.191069 7.372968
						CHANNELS 3 Xrotation Yrotation Zrotation
						JOINT RightToe_End
						{
							OFFSET -0.070227 0.081735 4.479403
							CHANNELS 3 Xrotation Yrotation Zrotation
							End Site
							{
								OFFSET 0 0 0
							}
						}
					}
				}
			}
		}
	}
	JOINT Spine_virtual
	{
		OFFSET 0.000000 0.000000 0.000000
		CHANNELS 3 Xrotation Yrotation Zrotation
		JOINT Spine
		{
			OFFSET 0.000000 6.876099 0.125700
			CHANNELS 3 Xrotation Yrotation Zrotation
			JOINT Spine1
			{
				OFFSET 0.000000 5.730043 0.104720
				CHANNELS 3 Xrotation Yrotation Zrotation
				JOINT Spine1_split
				{
					OFFSET 0.000000 5.730043 0.104720
					CHANNELS 3 Xrotation Yrotation Zrotation
					JOINT Spine2
					{
						OFFSET 0.000000 5.730043 0.104720
						CHANNELS 3 Xrotation Yrotation Zrotation
						JOINT Neck_virtual
						{
							OFFSET 0.000000 0.000000 0.000000
							CHANNELS 3 Xrotation Yrotation Zrotation
							JOINT Neck
							{
								OFFSET 0.000000 10.314075 0.188496
								CHANNELS 3 Xrotation Yrotation Zrotation
								JOINT Head
								{
									OFFSET 0.000000 7.643700 -2.377400
									CHANNELS 3 Xrotation Yrotation Zrotation
									JOINT HeadTop_End
									{
										OFFSET 0.000000 43.788605 -13.619600
										CHANNELS 3 Xrotation Yrotation Zrotation
										End Site
										{
											OFFSET 0 0 0
										}
									}
								}
							}
						}
						JOINT LeftShoulder_virtual
						{
							OFFSET 0.000000 0.000000 0.000000
							CHANNELS 3 Xrotation Yrotation Zrotation
							JOINT LeftShoulder
							{
								OFFSET 2.196100 4.412489 0.087492
								CHANNELS 3 Xrotation Yrotation Zrotation
								JOINT LeftShoulder_split
								{
									OFFSET 2.196100 4.412489 0.087492
									CHANNELS 3 Xrotation Yrotation Zrotation
									JOINT LeftArm
									{
										OFFSET 8.771219 -2.981674 -0.026999
										CHANNELS 3 Xrotation Yrotation Zrotation
										JOINT LeftForeArm
										{
											OFFSET 8.512804 0.000000 -0.000000
											CHANNELS 3 Xrotation Yrotation Zrotation
											JOINT LeftHand
											{
												OFFSET 18.484802 0.000000 -0.000000
												CHANNELS 3 Xrotation Yrotation Zrotation
												End Site
												{
													OFFSET 0 0 0
												}
											}
										}
									}
								}
							}
						}
						JOINT RightShoulder_virtual
						{
							OFFSET 0.000000 0.000000 0.000000
							CHANNELS 3 Xrotation Yrotation Zrotation
							JOINT RightShoulder
							{
								OFFSET -2.196100 4.412496 0.070690
								CHANNELS 3 Xrotation Yrotation Zrotation
								JOINT RightShoulder_split
								{
									OFFSET -2.196100 4.412496 0.070690
									CHANNELS 3 Xrotation Yrotation Zrotation
									JOINT RightArm
									{
										OFFSET -8.771282 -2.981682 -0.094208
										CHANNELS 3 Xrotation Yrotation Zrotation
										JOINT RightForeArm
										{
											OFFSET -8.494598 0.000000 0.000000
											CHANNELS 3 Xrotation Yrotation Zrotation
											JOINT RightHand
											{
												OFFSET -18.483803 0.000000 0.000001
												CHANNELS 3 Xrotation Yrotation Zrotation
												End Site
												{
													OFFSET 0 0 0
												}
											}
										}
									}
								}
							}
						}
					}
				}
			}
		}
	}
}
MOTION
Frames: 10
Frame Time: 0.03333333
0.678990 81.715691 -0.369026 0.000000 0.000000 0.000000 -4.565420 5.013322 3.848015 -9.764223 15.363199 10.963019 15.828482 -8.516373 -1.100776 -3.951232 0.858135 -7.097661 -0.000001 0.000002 0.000000 0.000000 0.000000 0.000000 -4.565420 5.013322 3.848015 -1.183533 -9.833938 -7.679058 31.288953 7.423751 1.242633 -34.822818 -2.489252 4.593582 -0.000008 0.000000 0.000000 0.000000 0.000000 0.000000 -4.565420 5.013322 3.848015 4.648300 -0.784478 1.697080 9.932384 -0.680238 3.008163 0.000000 0.000000 0.000000 0.000000 0.000000 0.000000 9.936596 -0.617925 3.002057 -0.494620 1.768445 -5.437057 5.110709 1.939356 -6.547526 0.000000 0.000000 0.000000 9.936596 -0.617925 3.002057 -0.221744 14.341903 -11.465866 0.000000 0.000000 0.000000 4.441023 -10.208756 -60.164473 0.000003 -50.304456 -0.000008 0.000000 0.000000 0.000000 9.936596 -0.617925 3.002057 1.119638 3.440114 7.346961 0.000000 0.000000 0.000000 -5.089670 8.253000 56.488434 0.000004 38.764544 -0.000010 0.000000 0.000000 0.000000 
0.668774 81.692764 -0.389887 0.000000 0.000000 0.000000 -4.051629 5.037838 3.828110 -10.680964 15.065744 11.019251 16.664629 -8.328064 -1.201019 -4.531663 0.885352 -6.929645 -0.000003 0.000001 0.000001 0.000000 0.000000 0.000000 -4.051629 5.037838 3.828110 -1.765685 -9.796710 -7.671347 31.425475 7.400057 1.243290 -35.172903 -2.487544 4.460402 -0.000001 -0.000000 0.000003 0.000000 0.000000 0.000000 -4.051629 5.037838 3.828110 4.587328 -0.777857 1.695492 9.837533 -0.656224 2.999172 0.000000 0.000000 0.000000 0.000000 0.000000 0.000000 9.842315 -0.594122 2.990732 -0.552504 1.913018 -5.689799 5.267445 2.253988 -6.652773 0.000000 0.000000 0.000000 9.842315 -0.594122 2.990732 -0.217716 14.595756 -11.694874 0.000000 0.000000 0.000000 4.265769 -10.605533 -59.786306 -0.000013 -50.764124 -0.000006 0.000000 0.000000 0.000000 9.842315 -0.594122 2.990732 1.104815 3.549007 6.940630 0.000000 0.000000 0.000000 -3.653392 10.119992 55.385256 0.000010 39.770740 -0.000021 0.000000 0.000000 0.000000 
0.649883 81.662788 -0.423798 0.000000 0.000000 0.000000 -3.498071 5.161760 3.826289 -11.506179 14.866323 11.036279 18.045452 -6.976706 -1.285576 -5.709282 1.016320 -6.991041 0.000005 0.000001 0.000001 0.000000 0.000000 0.000000 -3.498071 5.161760 3.826289 -2.438513 -9.759930 -7.642405 31.708863 7.287751 1.228962 -35.620058 -2.479252 4.290392 0.000004 -0.000003 -0.000001 0.000000 0.000000 0.000000 -3.498071 5.161760 3.826289 4.523156 -0.782870 1.667909 9.747390 -0.660637 2.989696 0.000000 0.000000 0.000000 0.000000 0.000000 0.000000 9.752280 -0.598475 2.981114 -0.524607 2.045888 -5.949948 5.185573 2.561494 -6.667637 0.000000 0.000000 0.000000 9.752280 -0.598475 2.981114 -0.217897 14.614112 -11.692008 0.000000 0.000000 0.000000 4.068835 -10.818478 -59.539975 0.000002 -51.290052 -0.000003 0.000000 0.000000 0.000000 9.752280 -0.598475 2.981114 1.097566 3.801378 6.436547 0.000000 0.000000 0.000000 -1.977658 12.089239 53.953925 -0.000002 41.267644 0.000017 0.000000 0.000000 0.000000 
0.602971 81.630508 -0.486019 0.000000 0.000000 0.000000 -2.998915 5.420423 3.848579 -12.131358 14.908112 10.801771 20.092289 -4.342092 -1.217409 -7.399047 1.282949 -7.352706 0.000002 0.000000 0.000004 0.000000 0.000000 0.000000 -2.998915 5.420423 3.848579 -3.122445 -9.728169 -7.534032 32.138099 6.997020 1.185897 -36.103656 -2.466091 4.110071 0.000003 -0.000001 0.000002 0.000000 0.000000 0.000000 -2.998915 5.420423 3.848579 4.476502 -0.807812 1.593978 9.704065 -0.709358 2.967788 0.000000 0.000000 0.000000 0.000000 0.000000 0.000000 9.708643 -0.646170 2.961688 -0.488485 2.146772 -6.165091 4.810438 2.804506 -6.514260 0.000000 0.000000 0.000000 9.708643 -0.646170 2.961688 -0.232226 14.387117 -11.379467 0.000000 0.000000 0.000000 3.915818 -10.972415 -59.276405 0.000013 -51.932213 0.000010 0.000000 0.000000 0.000000 9.708643 -0.646170 2.961688 1.096164 4.154837 5.880068 0.000000 0.000000 0.000000 -0.334867 14.033249 52.408847 -0.000007 43.158668 -0.000001 0.000000 0.000000 0.000000 
0.528394 81.597168 -0.568649 0.000000 0.000000 0.000000 -2.623369 5.821023 3.895682 -12.873108 15.092027 10.098374 22.668384 -1.978247 -0.902423 -9.145880 1.602052 -7.757608 0.000002 -0.000001 -0.000001 0.000000 0.000000 0.000000 -2.623369 5.821023 3.895682 -3.670276 -9.724963 -7.342811 32.627086 6.522488 1.117538 -36.633863 -2.468980 3.966965 -0.000002 0.000001 0.000001 0.000000 0.000000 0.000000 -2.623369 5.821023 3.895682 4.462758 -0.868343 1.480600 9.734232 -0.822783 2.950465 0.000000 0.000000 0.000000 0.000000 0.000000 0.000000 9.738347 -0.756547 2.949173 -0.542736 2.206898 -6.303404 4.109063 2.928316 -6.086942 0.000000 0.000000 0.000000 9.738347 -0.756547 2.949173 -0.257482 14.043082 -10.850123 0.000000 0.000000 0.000000 3.911264 -11.282848 -58.699015 0.000016 -52.759489 0.000009 0.000000 0.000000 0.000000 9.738347 -0.756547 2.949173 1.092781 4.536778 5.281534 0.000000 0.000000 0.000000 1.292048 16.135470 50.820316 -0.000012 45.498578 0.000008 0.000000 0.000000 0.000000 
0.449066 81.563393 -0.633762 0.000000 0.000000 0.000000 -2.180560 6.348244 3.939924 -14.259713 15.137181 9.051204 25.429216 -1.441612 -0.648332 -10.551567 1.791516 -7.730559 -0.000002 0.000000 0.000000 0.000000 0.000000 0.000000 -2.180560 6.348244 3.939924 -4.125391 -9.745210 -7.108112 33.023883 5.910488 1.042281 -37.275935 -2.513786 3.889257 -0.000002 -0.000002 -0.000000 0.000000 0.000000 0.000000 -2.180560 6.348244 3.939924 4.483732 -0.973493 1.367101 9.831743 -1.005969 2.976842 0.000000 0.000000 0.000000 0.000000 0.000000 0.000000 9.835532 -0.933983 2.981983 -0.757526 2.223827 -6.349438 3.086777 2.890407 -5.303504 0.000000 0.000000 0.000000 9.835532 -0.933983 2.981983 -0.282777 13.787165 -10.359162 0.000000 0.000000 0.000000 4.111789 -11.938481 -57.510391 -0.000006 -53.798303 -0.000015 0.000000 0.000000 0.000000 9.835532 -0.933983 2.981983 1.076905 4.836868 4.635309 0.000000 0.000000 0.000000 3.320292 18.724229 48.885641 0.000019 48.606625 -0.000026 0.000000 0.000000 0.000000 
0.380805 81.531624 -0.649265 0.000000 0.000000 0.000000 -1.474073 7.045760 3.896920 -16.489929 14.970053 7.807551 28.237669 -2.417097 -0.512243 -11.528272 1.789168 -7.089494 -0.000000 -0.000005 -0.000003 0.000000 0.000000 0.000000 -1.474073 7.045760 3.896920 -4.478965 -9.751974 -6.761289 33.080454 5.075378 0.956547 -37.993839 -2.632004 3.943043 0.000020 0.000001 -0.000000 0.000000 0.000000 0.000000 -1.474073 7.045760 3.896920 4.542832 -1.108964 1.280077 9.994970 -1.229150 3.056680 0.000000 0.000000 0.000000 0.000000 0.000000 0.000000 9.998290 -1.149129 3.070382 -1.141379 2.174373 -6.256694 1.768136 2.635820 -4.190723 0.000000 0.000000 0.000000 9.998290 -1.149129 3.070382 -0.302099 13.641729 -10.034433 0.000000 0.000000 0.000000 4.408299 -12.895322 -55.741129 0.000015 -54.958035 0.000031 0.000000 0.000000 0.000000 9.998290 -1.149129 3.070382 1.040921 4.923951 3.997694 0.000000 0.000000 0.000000 6.090337 21.754311 46.080865 -0.000016 52.839491 0.000024 0.000000 0.000000 0.000000 
0.326941 81.507332 -0.616112 0.000000 0.000000 0.000000 -0.587407 7.950744 3.692707 -19.011891 14.682695 6.461680 30.745151 -3.399628 -0.448810 -12.294139 1.674828 -6.042860 0.000008 0.000001 -0.000000 0.000000 0.000000 0.000000 -0.587407 7.950744 3.692707 -4.577835 -9.716702 -6.222849 32.630829 3.952928 0.844874 -38.589462 -2.846122 4.234334 0.000005 0.000002 -0.000002 0.000000 0.000000 0.000000 -0.587407 7.950744 3.692707 4.663064 -1.239760 1.207471 10.268930 -1.434976 3.140095 0.000000 0.000000 0.000000 0.000000 0.000000 0.000000 10.270855 -1.345614 3.166579 -1.653935 2.017902 -5.952906 0.211499 2.109670 -2.946122 0.000000 0.000000 0.000000 10.270855 -1.345614 3.166579 -0.318638 13.347476 -9.681797 0.000000 0.000000 0.000000 4.525142 -13.834132 -53.859293 0.000004 -56.048478 -0.000005 0.000000 0.000000 0.000000 10.270855 -1.345614 3.166579 0.983812 4.719956 3.489486 0.000000 0.000000 0.000000 9.297689 24.633333 42.233706 0.000031 58.070637 -0.000038 0.000000 0.000000 0.000000 
0.291093 81.498795 -0.553318 0.000000 0.000000 0.000000 0.267902 8.926966 3.358641 -21.064647 14.292737 5.035904 32.305111 -3.682301 -0.408935 -13.170813 1.542026 -4.889542 -0.000003 0.000006 0.000000 0.000000 0.000000 0.000000 0.267902 8.926966 3.358641 -4.425787 -9.632945 -5.590661 31.792109 2.753643 0.716688 -38.840718 -3.128910 4.776846 0.000007 0.000000 0.000001 0.000000 0.000000 0.000000 0.267902 8.926966 3.358641 4.877234 -1.333360 1.122477 10.720814 -1.571677 3.161710 0.000000 0.000000 0.000000 0.000000 0.000000 0.000000 10.720037 -1.471899 3.206311 -2.221024 1.749472 -5.440874 -1.500401 1.350395 -1.871313 0.000000 0.000000 0.000000 10.720037 -1.471899 3.206311 -0.337119 12.601313 -8.985524 0.000000 0.000000 0.000000 4.219035 -14.350718 -52.416654 -0.000021 -56.927694 -0.000025 0.000000 0.000000 0.000000 10.720037 -1.471899 3.206311 0.916690 4.322844 3.147805 0.000000 0.000000 0.000000 12.008531 26.802728 37.944358 0.000011 63.506730 -0.000018 0.000000 0.000000 0.000000 
0.277074 81.488960 -0.472755 0.000000 0.000000 0.000000 0.989771 9.684829 3.005172 -22.536890 13.767303 3.593728 32.748933 -3.663100 -0.383051 -13.995724 1.367425 -3.698141 0.000002 -0.000011 0.000000 0.000000 0.000000 0.000000 0.989771 9.684829 3.005172 -4.326833 -9.516950 -5.074028 31.078925 1.868133 0.598552 -38.861270 -3.405953 5.394465 0.000013 -0.000002 -0.000003 0.000000 0.000000 0.000000 0.989771 9.684829 3.005172 5.202280 -1.379279 1.014688 11.376314 -1.615711 3.109198 0.000000 0.000000 0.000000 0.000000 0.000000 0.000000 11.372193 -1.503693 3.174409 -2.766492 1.443338 -4.876508 -3.338392 0.552480 -1.172785 0.000000 0.000000 0.000000 11.372193 -1.503693 3.174409 -0.338606 11.398262 -7.907668 0.000000 0.000000 0.000000 3.552587 -14.233324 -51.549207 -0.000003 -57.637303 0.000016 0.000000 0.000000 0.000000 11.372193 -1.503693 3.174409 0.856217 4.017149 2.809531 0.000000 0.000000 0.000000 13.366152 28.327294 34.275914 0.000017 68.162112 -0.000029 0.000000 0.000000 0.000000 
